<?xml version="1.0" encoding="utf-8"?>
<!-- Generator: Adobe Illustrator 17.0.0, SVG Export Plug-In . SVG Version: 6.00 Build 0)  -->
<!DOCTYPE svg PUBLIC "-//W3C//DTD SVG 1.1//EN" "http://www.w3.org/Graphics/SVG/1.1/DTD/svg11.dtd">
<svg version="1.1" xmlns="http://www.w3.org/2000/svg" xmlns:xlink="http://www.w3.org/1999/xlink" x="0px" y="0px" width="592px"
	 height="597.563px" viewBox="0 0 592 597.563" enable-background="new 0 0 592 597.563" xml:space="preserve">
<g id="Layer_5">
</g>
<g id="Layer_6">
	
		<ellipse transform="matrix(0.9774 0.2112 -0.2112 0.9774 67.2009 -56.4689)" fill="#FFFFFF" cx="297.897" cy="286.292" rx="199.198" ry="187.198"/>
	
		<ellipse transform="matrix(-0.9482 0.3178 -0.3178 -0.9482 666.2013 453.3655)" opacity="0.1" fill="#BBBDBF" cx="296.128" cy="281.012" rx="185.411" ry="84.159"/>
	<path fill="none" d="M300.119,284.354c12.735,30.72,48.739,37.154,74.31,55.27c25.735-13.679,48.549-29.814,65.394-45.543
		c26.629-24.865,36.089-50.941,29.515-70.559s-29.202-32.831-65.436-36.629c-22.989-2.41-50.655-0.448-79.249,5.006
		C315.019,226.412,286.218,250.823,300.119,284.354z"/>
	<path fill="none" d="M295.757,285.816c-11.699-36.282-49.615-39.652-76.3-58.629c-26.021,12.854-49.203,27.92-66.053,43.654
		c-26.629,24.865-36.725,49.045-30.15,68.662c6.574,19.618,29.837,34.728,66.071,38.526c23.17,2.428,51.458,1.516,80.57-3.206
		C279.524,336.392,307.221,321.369,295.757,285.816z"/>
	<path fill="#231F20" d="M175.923,145.515l31.527-23.156l31.421-12.202l40.19-10.151l33.62-0.152c0,0,21.667,9.493,28.671,36.161
		c17.046,64.914-54.82,98.567-33.8,147.32c18.267,42.368,82.055,39.685,107.055,77.736c19.873,30.247,5.488,65.624,5.488,65.624
		l-23.133,18.48L359.393,463.1l-43.763,9.59l-29.37,0.398c-23.48-16.658-35.711-37.237-35.335-53.089
		c1.642-69.129,54.019-83.789,38.995-130.756c-17.349-54.236-97.598-37.621-115.676-95.239
		C166.104,168.06,175.923,145.515,175.923,145.515z"/>
	
		<linearGradient id="SVGID_1_" gradientUnits="userSpaceOnUse" x1="35.109" y1="433.9815" x2="172.0103" y2="433.9815" gradientTransform="matrix(-0.9482 0.3178 -0.3178 -0.9482 490.6516 534.1699)">
		<stop  offset="0" style="stop-color:#84B2DF"/>
		<stop  offset="1" style="stop-color:#565DA8"/>
	</linearGradient>
	<path fill="url(#SVGID_1_)" d="M267.803,196.491c19.83-6.645,39.722-11.46,58.985-14.512c1.474-9.745,1.184-20.33-2.056-32.129
		c-6.79-24.726-31.392-49.58-31.392-49.58l-24.329-0.214l-30.141,10.101l-33.778,13.524l-13.422,8.898
		c0,0-3.744,38.287,3.909,62.404c3.496,11.016,9.107,19.206,15.951,25.711C228.867,211.423,247.8,203.195,267.803,196.491z"/>
	
		<linearGradient id="SVGID_2_" gradientUnits="userSpaceOnUse" x1="35.4579" y1="202.6871" x2="173.987" y2="202.6871" gradientTransform="matrix(-0.9482 0.3178 -0.3178 -0.9482 490.6516 534.1699)">
		<stop  offset="0" style="stop-color:#84B2DF"/>
		<stop  offset="1" style="stop-color:#565DA8"/>
	</linearGradient>
	<path fill="url(#SVGID_2_)" d="M377.876,342.189c-1.124-0.882-2.276-1.735-3.447-2.565c-25.277-17.907-60.73-24.416-73.845-54.233
		l-4.508,1.511c10.548,34.768-16.652,49.888-26.181,87.92c-0.331,1.322-0.641,2.672-0.927,4.051
		c-1.614,7.777-2.14,16.484-2.163,26.463c-0.063,27.064,22.882,51.516,42.204,67.866l22.911-2.81l27.474-7.291l28.85-12.818
		l14.32-10.453c0,0,7.763-52.038-9.355-80.647C389.137,352.376,383.862,346.887,377.876,342.189z"/>
	
		<linearGradient id="SVGID_3_" gradientUnits="userSpaceOnUse" x1="48.6384" y1="338.6342" x2="159.5948" y2="338.6342" gradientTransform="matrix(-0.9482 0.3178 -0.3178 -0.9482 490.6516 534.1699)">
		<stop  offset="0" style="stop-color:#84B2DF"/>
		<stop  offset="1" style="stop-color:#565DA8"/>
	</linearGradient>
	<path fill="url(#SVGID_3_)" d="M300.119,284.354c-13.9-33.531,14.9-57.942,24.534-92.455c-17.833,3.402-36.025,8.159-53.672,14.073
		c-17.723,5.939-35.182,13.142-51.524,21.214c26.685,18.977,64.601,22.347,76.3,58.629c0.119,0.368,0.209,0.722,0.319,1.086
		l4.508-1.511C300.431,285.044,300.265,284.709,300.119,284.354z"/>
	
		<linearGradient id="SVGID_4_" gradientUnits="userSpaceOnUse" x1="106.2284" y1="288.3562" x2="103.8951" y2="119.0229" gradientTransform="matrix(-0.9482 0.3178 -0.3178 -0.9482 490.6516 534.1699)">
		<stop  offset="0" style="stop-color:#FFFFFF;stop-opacity:0"/>
		<stop  offset="0.5616" style="stop-color:#FFFFFF"/>
		<stop  offset="1" style="stop-color:#FFFFFF;stop-opacity:0"/>
	</linearGradient>
	<path opacity="0.7" fill="url(#SVGID_4_)" d="M377.876,342.189c-1.124-0.882-2.276-1.735-3.447-2.565
		c-25.277-17.907-60.73-24.416-73.845-54.233l-4.508,1.511c10.548,34.768-16.652,49.888-26.181,87.92
		c-0.331,1.322-0.641,2.672-0.927,4.051c-1.614,7.777-2.163,16.484-2.163,26.463c0,27.424,22.882,51.516,42.204,67.866l22.911-2.81
		l27.474-7.291l28.85-12.818l14.32-10.453c0,0,7.763-52.038-9.355-80.647C389.137,352.376,383.862,346.887,377.876,342.189z"/>
	
		<linearGradient id="SVGID_5_" gradientUnits="userSpaceOnUse" x1="254.5665" y1="203.1735" x2="301.2332" y2="259.8401" gradientTransform="matrix(0.9774 0.2112 -0.2112 0.9774 65.8133 -43.4803)">
		<stop  offset="0.0013" style="stop-color:#838B91;stop-opacity:0.5"/>
		<stop  offset="1" style="stop-color:#FFFFFF;stop-opacity:0"/>
	</linearGradient>
	<path opacity="0.9" fill="url(#SVGID_5_)" d="M300.119,284.354c-13.9-33.531,14.9-57.942,24.534-92.455
		c-17.833,3.402-36.025,8.159-53.672,14.073c-17.723,5.939-35.182,13.142-51.524,21.214c26.685,18.977,64.601,22.347,76.3,58.629
		c0.119,0.368,0.209,0.722,0.319,1.086l4.508-1.511C300.431,285.044,300.265,284.709,300.119,284.354z"/>
	
		<linearGradient id="SVGID_6_" gradientUnits="userSpaceOnUse" x1="102.8904" y1="402.9851" x2="105.8904" y2="467.6518" gradientTransform="matrix(-0.9482 0.3178 -0.3178 -0.9482 490.6516 534.1699)">
		<stop  offset="0" style="stop-color:#FFFFFF"/>
		<stop  offset="1" style="stop-color:#FFFFFF;stop-opacity:0"/>
	</linearGradient>
	<path opacity="0.7" fill="url(#SVGID_6_)" d="M267.803,196.491c19.83-6.645,39.722-11.46,58.985-14.512
		c1.474-9.745,1.184-20.33-2.056-32.129c-6.79-24.726-31.392-49.58-31.392-49.58l-24.329-0.214l-30.141,10.101l-33.778,13.524
		l-13.422,8.898c0,0-3.744,38.287,3.909,62.404c3.496,11.016,9.107,19.206,15.951,25.711
		C228.867,211.423,247.8,203.195,267.803,196.491z"/>
	<path fill="#FFFFFF" d="M254.274,478.855c-32.888-7.108-63.583-22.492-88.764-44.489c-25.969-22.683-45.502-52-56.488-84.779
		C74.548,246.713,131.229,134.625,235.374,99.724c34.34-11.507,71.044-13.581,106.146-5.994
		c32.888,7.108,63.582,22.492,88.764,44.489c25.969,22.683,45.502,52,56.487,84.778c34.475,102.874-22.206,214.962-126.351,249.864
		C326.081,484.368,289.376,486.441,254.274,478.855z M338.986,105.458c-32.994-7.131-67.503-5.179-99.798,5.644
		c-97.872,32.799-153.969,139.302-121.596,235.903c20.783,62.017,74.587,106.152,139.218,120.12
		c32.993,7.131,67.504,5.179,99.798-5.644c97.872-32.799,151.159-138.073,118.786-234.673
		C454.61,164.792,403.616,119.427,338.986,105.458z"/>
	<linearGradient id="SVGID_7_" gradientUnits="userSpaceOnUse" x1="146.8629" y1="360.865" x2="466.8629" y2="202.865">
		<stop  offset="0" style="stop-color:#D3D4D6"/>
		<stop  offset="1" style="stop-color:#555658"/>
	</linearGradient>
	<path fill="url(#SVGID_7_)" d="M232.408,90.87c109.228-36.605,227.47,21.282,263.582,129.037s-23.374,225.202-132.602,261.807
		c-109.229,36.605-227.471-21.281-263.582-129.037S123.179,127.474,232.408,90.87z M359.558,470.285
		c102.841-34.464,158.846-145.042,124.847-246.496C450.405,122.335,339.078,67.834,236.237,102.298S77.39,247.34,111.389,348.794
		S256.717,504.749,359.558,470.285z"/>
	<path fill="#CCCCCC" d="M263.646,379.788c0.008-0.001,0.017-0.003,0.025-0.004C263.662,379.785,263.654,379.787,263.646,379.788z"
		/>
	<g>
		<linearGradient id="SVGID_8_" gradientUnits="userSpaceOnUse" x1="109.9783" y1="286.1619" x2="429.9783" y2="128.1619">
			<stop  offset="0" style="stop-color:#D3D4D6"/>
			<stop  offset="1" style="stop-color:#555658"/>
		</linearGradient>
		<path fill="url(#SVGID_8_)" d="M326.789,181.979c-19.263,3.052-39.156,7.867-58.985,14.512
			c-20.004,6.704-38.937,14.932-56.272,24.202c-3.963,2.119-7.834,4.297-11.623,6.519c2.912,1.931,5.958,3.697,9.098,5.344
			c3.427-1.827,6.91-3.621,10.452-5.37c16.342-8.073,33.801-15.275,51.524-21.214c17.647-5.914,35.839-10.671,53.672-14.073
			c3.981-0.759,7.941-1.444,11.876-2.065c1.338-3.16,2.55-6.387,3.59-9.692C335.714,180.662,331.27,181.269,326.789,181.979z"/>
		<linearGradient id="SVGID_9_" gradientUnits="userSpaceOnUse" x1="140.2284" y1="347.4281" x2="460.2285" y2="189.4281">
			<stop  offset="0" style="stop-color:#D3D4D6"/>
			<stop  offset="1" style="stop-color:#555658"/>
		</linearGradient>
		<path fill="url(#SVGID_9_)" d="M258.405,380.607c0.559-1.48,1.138-2.928,1.738-4.347c0.007-0.001,0.013-0.002,0.02-0.003
			c-25.643,3.442-50.259,3.928-70.837,1.771c-36.234-3.798-59.497-18.908-66.071-38.526c-6.574-19.618,3.522-43.798,30.15-68.662
			c16.85-15.733,40.032-30.8,66.053-43.654c-2.779-1.976-5.433-4.124-7.926-6.493c-23.4,12.513-43.884,26.927-60.111,42.081
			c-29.053,27.129-40.535,55.554-32.907,78.317c7.628,22.763,33.602,37.582,73.136,41.726c20.159,2.113,42.691,1.337,66.34-2.148"/>
		<g>
			<linearGradient id="SVGID_10_" gradientUnits="userSpaceOnUse" x1="147.8561" y1="362.8764" x2="467.856" y2="204.8764">
				<stop  offset="0" style="stop-color:#D3D4D6"/>
				<stop  offset="1" style="stop-color:#555658"/>
			</linearGradient>
			<path fill="url(#SVGID_10_)" d="M387.556,337.053c20.585-11.343,38.704-24.122,53.298-37.75
				c29.053-27.129,40.852-54.606,33.224-77.369c-7.628-22.763-33.919-38.53-73.453-42.674c-22.225-2.33-47.438-1.464-73.837,2.719
				c-0.515,3.404-1.239,6.708-2.136,9.921c28.594-5.455,56.26-7.416,79.249-5.006c36.234,3.798,58.861,17.012,65.436,36.629
				s-2.886,45.694-29.515,70.559c-14.976,13.984-34.677,28.284-56.946,40.898c0.002-0.001,0.004-0.002,0.007-0.004
				c1.444,0.744,2.872,1.508,4.28,2.292"/>
			<linearGradient id="SVGID_11_" gradientUnits="userSpaceOnUse" x1="373.274" y1="344.337" x2="391.8428" y2="335.1686">
				<stop  offset="0" style="stop-color:#D3D4D6"/>
				<stop  offset="1" style="stop-color:#555658"/>
			</linearGradient>
			<path fill="url(#SVGID_11_)" d="M382.561,339.752c-0.001,0-0.002,0.001-0.002,0.001
				C382.559,339.752,382.56,339.752,382.561,339.752z"/>
		</g>
	</g>
	<radialGradient id="SVGID_12_" cx="288.3333" cy="296.3333" r="102.2633" gradientUnits="userSpaceOnUse">
		<stop  offset="0.6014" style="stop-color:#FFFFFF;stop-opacity:0.2"/>
		<stop  offset="0.8362" style="stop-color:#FFFFFF;stop-opacity:0"/>
	</radialGradient>
	<ellipse fill="url(#SVGID_12_)" cx="294.486" cy="294.571" rx="223" ry="114.429"/>
	<rect x="-178.995" y="242.401" fill="none" width="954.972" height="168.643"/>
	<text transform="matrix(1 0 0 1 3.895 323.2014)" fill="#231F20" font-family="'EncodeSans-Light'" font-size="100">chronosphere</text>
</g>
<g id="Layer_4" display="none">
	<g display="inline">
		<linearGradient id="SVGID_13_" gradientUnits="userSpaceOnUse" x1="-813.016" y1="351.3159" x2="-371.2188" y2="98.2612">
			<stop  offset="0" style="stop-color:#4585C5"/>
			<stop  offset="1" style="stop-color:#2C2E73"/>
		</linearGradient>
		<path fill="url(#SVGID_13_)" d="M-754.785,314.973c-23.745-39.956,28.366-114.756,116.394-167.07s178.638-62.332,202.384-22.376
			s-28.366,114.756-116.394,167.07S-731.039,354.93-754.785,314.973z"/>
		<linearGradient id="SVGID_14_" gradientUnits="userSpaceOnUse" x1="-813.016" y1="351.3159" x2="-371.2188" y2="98.2612">
			<stop  offset="0" style="stop-color:#4585C5"/>
			<stop  offset="1" style="stop-color:#2C2E73"/>
		</linearGradient>
		<path fill="url(#SVGID_14_)" d="M-590.789,222.674c18.937,27.337,55.487,26.02,84.309,38.325
			c22.264-18.807,41.156-39.397,54.298-58.329c20.775-29.929,24.513-57.415,13.943-75.201c-10.57-17.786-35.478-25.922-71.697-21.98
			c-22.98,2.501-49.607,10.262-76.403,21.634C-588.465,162.892-611.459,192.836-590.789,222.674z"/>
		<linearGradient id="SVGID_15_" gradientUnits="userSpaceOnUse" x1="-813.016" y1="351.3159" x2="-371.2188" y2="98.2612">
			<stop  offset="0" style="stop-color:#4585C5"/>
			<stop  offset="1" style="stop-color:#2C2E73"/>
		</linearGradient>
		<path fill="url(#SVGID_15_)" d="M-594.744,225.024c-19.099-32.992-56.871-28.277-86.963-41.188
			c-22.719,18.061-42.195,37.684-55.341,56.622c-20.775,29.929-25.535,55.696-14.965,73.482c10.57,17.786,36.5,27.641,72.719,23.699
			c23.161-2.521,50.617-9.389,78.074-20.154C-599.927,277.888-576.028,257.354-594.744,225.024z"/>
		<linearGradient id="SVGID_16_" gradientUnits="userSpaceOnUse" x1="-813.016" y1="351.3159" x2="-371.2188" y2="98.2612">
			<stop  offset="0" style="stop-color:#4585C5"/>
			<stop  offset="1" style="stop-color:#2C2E73"/>
		</linearGradient>
		<path fill="url(#SVGID_16_)" d="M-741.512,113.204l25.924-29.293l28.134-18.564l37.139-18.412l32.829-7.251
			c0,0,23.184,4.701,35.662,29.288c30.374,59.848-32.761,107.923-1.916,151.135c26.805,37.553,88.587,21.456,121.06,53.367
			c25.814,25.367,19.227,62.983,19.227,62.983l-18.707,22.95l-32.934,25.457l-40.75,18.618l-28.623,6.594
			c-26.469-11.322-42.771-28.853-45.752-44.426c-12.998-67.916,35.099-93.31,10.494-136.043
			c-28.414-49.347-103.343-16.155-133.184-68.653C-746.346,137.315-741.512,113.204-741.512,113.204z"/>
		<linearGradient id="SVGID_17_" gradientUnits="userSpaceOnUse" x1="-813.016" y1="351.3159" x2="-371.2188" y2="98.2612">
			<stop  offset="0" style="stop-color:#4585C5"/>
			<stop  offset="1" style="stop-color:#2C2E73"/>
		</linearGradient>
		<path fill="url(#SVGID_17_)" d="M-676.011,341.829c23.248-2.53,48.769-9.485,74.741-20.189c-0.012-1.408,0.006-2.793,0.05-4.155
			c-27.458,10.765-54.914,17.633-78.074,20.154c-36.219,3.942-62.148-5.913-72.719-23.699c-10.57-17.786-5.81-43.553,14.965-73.482
			c13.146-18.938,32.622-38.561,55.341-56.622c-3.133-1.344-6.182-2.883-9.119-4.672c-20.229,17.174-37.205,35.59-49.865,53.829
			c-22.667,32.654-27.885,62.863-15.62,83.501S-715.528,346.13-676.011,341.829z"/>
		<linearGradient id="SVGID_18_" gradientUnits="userSpaceOnUse" x1="-813.016" y1="351.3159" x2="-371.2188" y2="98.2612">
			<stop  offset="0" style="stop-color:#4585C5"/>
			<stop  offset="1" style="stop-color:#2C2E73"/>
		</linearGradient>
		<path fill="url(#SVGID_18_)" d="M-509.936,105.489c36.219-3.942,61.127,4.194,71.697,21.98
			c10.57,17.786,6.832,45.272-13.943,75.201c-13.142,18.932-32.033,39.522-54.298,58.329c1.32,0.564,2.625,1.154,3.911,1.779
			c21.394-17.477,39.358-36.293,52.498-55.222c22.667-32.654,28.395-62.004,16.13-82.642s-41.293-30.495-80.81-26.194
			c-22.215,2.418-46.677,8.59-71.596,18.255c0.216,3.436,0.206,6.818,0.008,10.148C-559.543,115.751-532.916,107.99-509.936,105.489
			z"/>
		<linearGradient id="SVGID_19_" gradientUnits="userSpaceOnUse" x1="-813.016" y1="351.3159" x2="-371.2188" y2="98.2612">
			<stop  offset="0" style="stop-color:#4585C5"/>
			<stop  offset="1" style="stop-color:#2C2E73"/>
		</linearGradient>
		<path fill="url(#SVGID_19_)" d="M-640.936,143.62c17.978-10.684,36.405-19.593,54.588-26.645
			c-0.618-9.836-3.137-20.122-8.796-30.969c-11.86-22.733-41.157-41.83-41.157-41.83l-23.825,4.93l-27.327,16.24l-30.159,20.355
			l-11.239,11.532c0,0,4.428,38.214,17.003,60.17c5.744,10.029,12.958,16.849,21.022,21.761
			C-675.84,166.441-659.072,154.398-640.936,143.62z"/>
		<linearGradient id="SVGID_20_" gradientUnits="userSpaceOnUse" x1="-813.016" y1="351.3159" x2="-371.2188" y2="98.2612">
			<stop  offset="0" style="stop-color:#4585C5"/>
			<stop  offset="1" style="stop-color:#2C2E73"/>
		</linearGradient>
		<path fill="url(#SVGID_20_)" d="M-502.57,262.778c-1.285-0.625-2.591-1.215-3.911-1.779
			c-28.489-12.163-64.518-11.036-83.635-37.41l-4.087,2.429c17.654,31.755-5.738,52.28-7.018,91.467
			c-0.044,1.362-0.062,2.747-0.05,4.155c0.066,7.942,1.064,16.64,3.476,26.322c3.502,14.059,33.248,45.52,55.588,57.419l21.8-7.587
			l25.314-12.931l25.491-18.623l11.789-13.242c0,0-3.405-52.503-26.18-76.851C-489.411,270.356-495.726,266.105-502.57,262.778z"/>
		<linearGradient id="SVGID_21_" gradientUnits="userSpaceOnUse" x1="-813.016" y1="351.3159" x2="-371.2188" y2="98.2612">
			<stop  offset="0" style="stop-color:#4585C5"/>
			<stop  offset="1" style="stop-color:#2C2E73"/>
		</linearGradient>
		<path fill="url(#SVGID_21_)" d="M-590.789,222.674c-20.67-29.838,2.324-59.782,4.45-95.551
			c-16.711,7.092-33.488,15.585-49.488,25.093c-16.068,9.549-31.612,20.277-45.88,31.62c30.092,12.911,67.864,8.196,86.963,41.188
			c0.194,0.335,0.356,0.661,0.541,0.994l4.087-2.429C-590.338,223.282-590.571,222.99-590.789,222.674z"/>
		<linearGradient id="SVGID_22_" gradientUnits="userSpaceOnUse" x1="-813.016" y1="351.3159" x2="-371.2188" y2="98.2612">
			<stop  offset="0" style="stop-color:#4585C5"/>
			<stop  offset="1" style="stop-color:#2C2E73"/>
		</linearGradient>
		<path fill="url(#SVGID_22_)" d="M-502.57,262.778c-1.285-0.625-2.591-1.215-3.911-1.779
			c-28.489-12.163-64.518-11.036-83.635-37.41l-4.087,2.429c17.654,31.755-5.738,52.28-7.018,91.467
			c-0.044,1.362-0.062,2.747-0.05,4.155c0.066,7.942,1.064,16.64,3.476,26.322c3.502,14.059,33.248,45.52,55.588,57.419l21.8-7.587
			l25.314-12.931l25.491-18.623l11.789-13.242c0,0-3.405-52.503-26.18-76.851C-489.411,270.356-495.726,266.105-502.57,262.778z"/>
		<linearGradient id="SVGID_23_" gradientUnits="userSpaceOnUse" x1="-813.016" y1="351.3159" x2="-371.2188" y2="98.2612">
			<stop  offset="0" style="stop-color:#4585C5"/>
			<stop  offset="1" style="stop-color:#2C2E73"/>
		</linearGradient>
		<path fill="url(#SVGID_23_)" d="M-590.789,222.674c-20.67-29.838,2.324-59.782,4.45-95.551
			c-16.711,7.092-33.488,15.585-49.488,25.093c-16.068,9.549-31.612,20.277-45.88,31.62c30.092,12.911,67.864,8.196,86.963,41.188
			c0.194,0.335,0.356,0.661,0.541,0.994l4.087-2.429C-590.338,223.282-590.571,222.99-590.789,222.674z"/>
		<linearGradient id="SVGID_24_" gradientUnits="userSpaceOnUse" x1="-813.016" y1="351.3159" x2="-371.2188" y2="98.2612">
			<stop  offset="0" style="stop-color:#4585C5"/>
			<stop  offset="1" style="stop-color:#2C2E73"/>
		</linearGradient>
		<path fill="url(#SVGID_24_)" d="M-640.936,143.62c17.978-10.684,36.405-19.593,54.588-26.645
			c-0.618-9.836-3.137-20.122-8.796-30.969c-11.86-22.733-41.157-41.83-41.157-41.83l-23.825,4.93l-27.327,16.24l-30.159,20.355
			l-11.239,11.532c0,0,4.428,38.214,17.003,60.17c5.744,10.029,12.958,16.849,21.022,21.761
			C-675.84,166.441-659.072,154.398-640.936,143.62z"/>
		<linearGradient id="SVGID_25_" gradientUnits="userSpaceOnUse" x1="-813.016" y1="351.3159" x2="-371.2188" y2="98.2612">
			<stop  offset="0" style="stop-color:#4585C5"/>
			<stop  offset="1" style="stop-color:#2C2E73"/>
		</linearGradient>
		<path fill="url(#SVGID_25_)" d="M-758.634,323.738c-53.825-90.57-23.101-208.182,68.625-262.693s209.717-25.279,263.541,65.291
			s23.101,208.182-68.625,262.693S-704.809,414.308-758.634,323.738z"/>
		<linearGradient id="SVGID_26_" gradientUnits="userSpaceOnUse" x1="-813.016" y1="351.3159" x2="-371.2188" y2="98.2612">
			<stop  offset="0" style="stop-color:#4585C5"/>
			<stop  offset="1" style="stop-color:#2C2E73"/>
		</linearGradient>
		<path fill="url(#SVGID_26_)" d="M-697.845,47.86c99.031-58.853,226.833-27.251,284.892,70.445s24.727,225.057-74.303,283.91
			c-99.031,58.853-226.833,27.252-284.893-70.444C-830.209,234.074-796.876,106.712-697.845,47.86z M-493.414,391.853
			c93.239-55.411,124.622-175.324,69.958-267.307S-598.448,2.81-691.688,58.221s-124.623,175.325-69.959,267.307
			C-706.983,417.511-586.654,447.264-493.414,391.853z"/>
	</g>
	<g display="inline">
		
			<ellipse transform="matrix(-0.8597 0.5109 -0.5109 -0.8597 -994.7072 713.7654)" opacity="0.4" fill="#D0D2D3" cx="-595.396" cy="220.251" rx="185.411" ry="84.159"/>
		<path fill="#231F20" d="M-741.512,113.204l25.924-29.293l28.134-18.564l37.139-18.412l32.829-7.251
			c0,0,23.184,4.701,35.662,29.288c30.374,59.848-32.761,107.923-1.916,151.135c26.805,37.553,88.587,21.456,121.06,53.367
			c25.814,25.367,19.227,62.983,19.227,62.983l-18.707,22.95l-32.934,25.457l-40.75,18.618l-28.623,6.594
			c-26.469-11.322-42.771-28.853-45.752-44.426c-12.998-67.916,35.099-93.31,10.494-136.043
			c-28.414-49.347-103.343-16.155-133.184-68.653C-746.346,137.315-741.512,113.204-741.512,113.204z"/>
		<path fill="#231F20" d="M-676.011,341.829c23.248-2.53,48.769-9.485,74.741-20.189c-0.012-1.408,0.006-2.793,0.05-4.155
			c-27.458,10.765-54.914,17.633-78.074,20.154c-36.219,3.942-62.148-5.913-72.719-23.699c-10.57-17.786-5.81-43.553,14.965-73.482
			c13.146-18.938,32.622-38.561,55.341-56.622c-3.133-1.344-6.182-2.883-9.119-4.672c-20.229,17.174-37.205,35.59-49.865,53.829
			c-22.667,32.654-27.885,62.863-15.62,83.501S-715.528,346.13-676.011,341.829z"/>
		<path fill="#231F20" d="M-509.936,105.489c36.219-3.942,61.127,4.194,71.697,21.98c10.57,17.786,6.832,45.272-13.943,75.201
			c-13.142,18.932-32.033,39.522-54.298,58.329c1.32,0.564,2.625,1.154,3.911,1.779c21.394-17.477,39.358-36.293,52.498-55.222
			c22.667-32.654,28.395-62.004,16.13-82.642s-41.293-30.495-80.81-26.194c-22.215,2.418-46.677,8.59-71.596,18.255
			c0.216,3.436,0.206,6.818,0.008,10.148C-559.543,115.751-532.916,107.99-509.936,105.489z"/>
		
			<linearGradient id="SVGID_27_" gradientUnits="userSpaceOnUse" x1="774.7338" y1="929.6772" x2="911.6351" y2="929.6772" gradientTransform="matrix(-0.8597 0.5109 -0.5109 -0.8597 537.2776 474.8685)">
			<stop  offset="0" style="stop-color:#84B2DF"/>
			<stop  offset="1" style="stop-color:#565DA8"/>
		</linearGradient>
		<path fill="url(#SVGID_27_)" d="M-640.936,143.62c17.978-10.684,36.405-19.593,54.588-26.645
			c-0.618-9.836-3.137-20.122-8.796-30.969c-11.86-22.733-41.157-41.83-41.157-41.83l-23.825,4.93l-27.327,16.24l-30.159,20.355
			l-11.239,11.532c0,0,4.428,38.214,17.003,60.17c5.744,10.029,12.958,16.849,21.022,21.761
			C-675.84,166.441-659.072,154.398-640.936,143.62z"/>
		
			<linearGradient id="SVGID_28_" gradientUnits="userSpaceOnUse" x1="775.0827" y1="698.3828" x2="911.9269" y2="698.3828" gradientTransform="matrix(-0.8597 0.5109 -0.5109 -0.8597 537.2776 474.8685)">
			<stop  offset="0" style="stop-color:#84B2DF"/>
			<stop  offset="1" style="stop-color:#565DA8"/>
		</linearGradient>
		<path fill="url(#SVGID_28_)" d="M-502.57,262.778c-1.285-0.625-2.591-1.215-3.911-1.779
			c-28.489-12.163-64.518-11.036-83.635-37.41l-4.087,2.429c17.654,31.755-5.738,52.28-7.018,91.467
			c-0.044,1.362-0.062,2.747-0.05,4.155c0.066,7.942,1.064,16.64,3.476,26.322c3.502,14.059,33.248,45.52,55.588,57.419l21.8-7.587
			l25.314-12.931l25.491-18.623l11.789-13.242c0,0-3.405-52.503-26.18-76.851C-489.411,270.356-495.726,266.105-502.57,262.778z"/>
		
			<linearGradient id="SVGID_29_" gradientUnits="userSpaceOnUse" x1="788.2632" y1="834.3299" x2="899.2195" y2="834.3299" gradientTransform="matrix(-0.8597 0.5109 -0.5109 -0.8597 537.2776 474.8685)">
			<stop  offset="0" style="stop-color:#84B2DF"/>
			<stop  offset="1" style="stop-color:#565DA8"/>
		</linearGradient>
		<path fill="url(#SVGID_29_)" d="M-590.789,222.674c-20.67-29.838,2.324-59.782,4.45-95.551
			c-16.711,7.092-33.488,15.585-49.488,25.093c-16.068,9.549-31.612,20.277-45.88,31.62c30.092,12.911,67.864,8.196,86.963,41.188
			c0.194,0.335,0.356,0.661,0.541,0.994l4.087-2.429C-590.338,223.282-590.571,222.99-590.789,222.674z"/>
		
			<linearGradient id="SVGID_30_" gradientUnits="userSpaceOnUse" x1="844.9416" y1="784.0645" x2="842.6082" y2="614.7311" gradientTransform="matrix(-0.8597 0.5109 -0.5109 -0.8597 537.2776 474.8685)">
			<stop  offset="0" style="stop-color:#FFFFFF;stop-opacity:0"/>
			<stop  offset="0.5616" style="stop-color:#FFFFFF"/>
			<stop  offset="1" style="stop-color:#FFFFFF;stop-opacity:0"/>
		</linearGradient>
		<path opacity="0.5" fill="url(#SVGID_30_)" d="M-502.57,262.778c-1.285-0.625-2.591-1.215-3.911-1.779
			c-28.489-12.163-64.518-11.036-83.635-37.41l-4.087,2.429c17.654,31.755-5.738,52.28-7.018,91.467
			c-0.044,1.362-0.062,2.747-0.05,4.155c0.066,7.942,1.064,16.64,3.476,26.322c3.502,14.059,33.248,45.52,55.588,57.419l21.8-7.587
			l25.314-12.931l25.491-18.623l11.789-13.242c0,0-3.405-52.503-26.18-76.851C-489.411,270.356-495.726,266.105-502.57,262.778z"/>
		<path opacity="0.1" fill="#D0D2D3" d="M-590.789,222.674c-20.67-29.838,2.324-59.782,4.45-95.551
			c-16.711,7.092-33.488,15.585-49.488,25.093c-16.068,9.549-31.612,20.277-45.88,31.62c30.092,12.911,67.864,8.196,86.963,41.188
			c0.194,0.335,0.356,0.661,0.541,0.994l4.087-2.429C-590.338,223.282-590.571,222.99-590.789,222.674z"/>
		
			<linearGradient id="SVGID_31_" gradientUnits="userSpaceOnUse" x1="842.5152" y1="898.6808" x2="845.5152" y2="963.3475" gradientTransform="matrix(-0.8597 0.5109 -0.5109 -0.8597 537.2776 474.8685)">
			<stop  offset="0" style="stop-color:#FFFFFF"/>
			<stop  offset="1" style="stop-color:#FFFFFF;stop-opacity:0"/>
		</linearGradient>
		<path opacity="0.5" fill="url(#SVGID_31_)" d="M-640.936,143.62c17.978-10.684,36.405-19.593,54.588-26.645
			c-0.618-9.836-3.137-20.122-8.796-30.969c-11.86-22.733-41.157-41.83-41.157-41.83l-23.825,4.93l-27.327,16.24l-30.159,20.355
			l-11.239,11.532c0,0,4.428,38.214,17.003,60.17c5.744,10.029,12.958,16.849,21.022,21.761
			C-675.84,166.441-659.072,154.398-640.936,143.62z"/>
		
			<ellipse transform="matrix(-0.8597 0.5109 -0.5109 -0.8597 -986.972 721.2133)" fill="none" stroke="#FFFFFF" stroke-width="12" stroke-miterlimit="10" cx="-592.551" cy="225.037" rx="193.198" ry="190.766"/>
		<path fill="#231F20" d="M-697.845,47.86c99.031-58.853,226.833-27.251,284.892,70.445s24.727,225.057-74.303,283.91
			c-99.031,58.853-226.833,27.252-284.893-70.444C-830.209,234.074-796.876,106.712-697.845,47.86z M-493.414,391.853
			c93.239-55.411,124.622-175.324,69.958-267.307S-598.448,2.81-691.688,58.221s-124.623,175.325-69.959,267.307
			C-706.983,417.511-586.654,447.264-493.414,391.853z"/>
	</g>
</g>
</svg>
